<svg width="488" height="130" xmlns="http://www.w3.org/2000/svg" xmlns:xlink="http://www.w3.org/1999/xlink" overflow="hidden"><defs><clipPath id="clip0"><rect x="378" y="284" width="488" height="130"/></clipPath></defs><g clip-path="url(#clip0)" transform="translate(-378 -284)"><path d="M15.7626 98.0457C14.4078 98.0457 13.2669 97.5822 12.34 96.6552 11.413 95.7282 10.9495 94.5873 10.9495 93.2325L10.9495 28.3085C10.9495 26.9536 11.413 25.8127 12.34 24.8858 13.2669 23.8875 14.4078 23.3883 15.7626 23.3883L58.6531 23.3883C59.9367 23.3883 61.0062 23.8518 61.8619 24.7788 62.7889 25.6345 63.2524 26.7041 63.2524 27.9876 63.2524 29.2711 62.7889 30.3407 61.8619 31.1963 61.0062 32.052 59.9367 32.4799 58.6531 32.4799L20.6828 32.4799 20.6828 56.1178 54.8026 56.1178C56.0861 56.1178 57.1557 56.5813 58.0114 57.5082 58.9384 58.3639 59.4019 59.4335 59.4019 60.717 59.4019 62.0005 58.9384 63.0701 58.0114 63.9258 57.1557 64.7814 56.0861 65.2093 54.8026 65.2093L20.6828 65.2093 20.6828 88.9542 58.6531 88.9542C59.9367 88.9542 61.0062 89.4176 61.8619 90.3446 62.7889 91.2003 63.2524 92.2699 63.2524 93.5534 63.2524 94.8369 62.7889 95.9065 61.8619 96.7622 61.0062 97.6178 59.9367 98.0457 58.6531 98.0457L15.7626 98.0457ZM101.011 99.1153C95.8773 99.1153 91.1355 97.9744 86.7858 95.6926 82.4361 93.4108 78.9421 90.1307 76.3038 85.8523 73.7368 81.574 72.4533 76.5469 72.4533 70.7711 72.4533 64.9954 73.7368 59.9683 76.3038 55.6899 78.9421 51.4116 82.4361 48.1315 86.7858 45.8497 91.1355 43.5679 95.8773 42.427 101.011 42.427 104.791 42.427 108.035 42.9262 110.745 43.9245 113.526 44.8514 116.093 46.0636 118.446 47.5611 119.872 48.488 120.585 49.7359 120.585 51.3046 120.585 52.3742 120.157 53.3725 119.301 54.2995 118.517 55.1551 117.59 55.583 116.52 55.583 115.736 55.583 114.952 55.3691 114.167 54.9412 111.814 53.729 109.782 52.8734 108.071 52.3742 106.431 51.8038 104.363 51.5185 101.867 51.5185 95.7347 51.5185 90.9215 53.3012 87.4275 56.8665 83.9336 60.3605 82.1866 64.9954 82.1866 70.7711 82.1866 76.5469 83.9336 81.2175 87.4275 84.7828 90.9215 88.2768 95.7347 90.0238 101.867 90.0238 104.363 90.0238 106.431 89.7742 108.071 89.275 109.782 88.7046 111.814 87.8133 114.167 86.6011 114.952 86.1732 115.736 85.9593 116.52 85.9593 117.59 85.9593 118.517 86.4228 119.301 87.3498 120.157 88.2054 120.585 89.1681 120.585 90.2377 120.585 91.8064 119.872 93.0542 118.446 93.9812 116.093 95.4787 113.526 96.7265 110.745 97.7248 108.035 98.6518 104.791 99.1153 101.011 99.1153ZM156.448 99.1153C150.957 99.1153 146.144 97.9387 142.008 95.5856 137.873 93.2325 134.664 89.9168 132.382 85.6384 130.172 81.2888 129.066 76.333 129.066 70.7711 129.066 65.2093 130.172 60.2892 132.382 56.0108 134.664 51.6612 137.873 48.3098 142.008 45.9567 146.144 43.6036 150.957 42.427 156.448 42.427 161.867 42.427 166.645 43.6036 170.78 45.9567 174.916 48.3098 178.125 51.6612 180.407 56.0108 182.688 60.2892 183.829 65.2093 183.829 70.7711 183.829 76.333 182.688 81.2888 180.407 85.6384 178.125 89.9168 174.916 93.2325 170.78 95.5856 166.645 97.9387 161.867 99.1153 156.448 99.1153ZM156.448 90.2377C159.371 90.2377 162.152 89.5603 164.791 88.2054 167.5 86.8506 169.711 84.7115 171.422 81.7879 173.205 78.8644 174.096 75.1565 174.096 70.6642 174.096 66.2432 173.205 62.571 171.422 59.6474 169.711 56.7239 167.5 54.6203 164.791 53.3368 162.152 51.982 159.371 51.3046 156.448 51.3046 153.453 51.3046 150.601 51.982 147.891 53.3368 145.253 54.6203 143.078 56.7239 141.367 59.6474 139.655 62.571 138.8 66.2432 138.8 70.6642 138.8 75.1565 139.655 78.8644 141.367 81.7879 143.078 84.7115 145.253 86.8506 147.891 88.2054 150.601 89.5603 153.453 90.2377 156.448 90.2377ZM212.982 98.5805C211.556 98.5805 210.273 98.1526 209.132 97.297 207.991 96.4413 207.207 95.3717 206.779 94.0882L191.591 49.5933C191.377 48.9515 191.27 48.3454 191.27 47.775 191.27 46.4202 191.733 45.2793 192.66 44.3523 193.587 43.4253 194.728 42.9618 196.083 42.9618 197.081 42.9618 197.972 43.2471 198.757 43.8175 199.613 44.3166 200.183 44.994 200.468 45.8497L212.982 87.0289 225.389 46.8123C225.746 45.6715 226.387 44.7445 227.314 44.0314 228.313 43.3184 229.418 42.9618 230.63 42.9618 231.842 42.9618 232.912 43.3184 233.839 44.0314 234.837 44.7445 235.515 45.6715 235.871 46.8123L248.278 87.0289 260.793 45.8497C261.078 44.994 261.613 44.3166 262.397 43.8175 263.253 43.2471 264.18 42.9618 265.178 42.9618 266.533 42.9618 267.674 43.4253 268.601 44.3523 269.528 45.2793 269.991 46.4202 269.991 47.775 269.991 48.3454 269.884 48.9515 269.67 49.5933L254.482 94.0882C254.054 95.3717 253.27 96.4413 252.129 97.297 250.988 98.1526 249.704 98.5805 248.278 98.5805 246.852 98.5805 245.569 98.1526 244.428 97.297 243.287 96.4413 242.467 95.336 241.968 93.9812L230.63 58.5778 219.293 93.9812C218.794 95.336 217.974 96.4413 216.833 97.297 215.692 98.1526 214.408 98.5805 212.982 98.5805ZM304.771 99.1153C299.28 99.1153 294.467 97.9387 290.331 95.5856 286.195 93.2325 282.987 89.9168 280.705 85.6384 278.494 81.2888 277.389 76.333 277.389 70.7711 277.389 65.2093 278.494 60.2892 280.705 56.0108 282.987 51.6612 286.195 48.3098 290.331 45.9567 294.467 43.6036 299.28 42.427 304.771 42.427 310.19 42.427 314.967 43.6036 319.103 45.9567 323.239 48.3098 326.448 51.6612 328.729 56.0108 331.011 60.2892 332.152 65.2093 332.152 70.7711 332.152 76.333 331.011 81.2888 328.729 85.6384 326.448 89.9168 323.239 93.2325 319.103 95.5856 314.967 97.9387 310.19 99.1153 304.771 99.1153ZM304.771 90.2377C307.694 90.2377 310.475 89.5603 313.113 88.2054 315.823 86.8506 318.033 84.7115 319.745 81.7879 321.527 78.8644 322.419 75.1565 322.419 70.6642 322.419 66.2432 321.527 62.571 319.745 59.6474 318.033 56.7239 315.823 54.6203 313.113 53.3368 310.475 51.982 307.694 51.3046 304.771 51.3046 301.776 51.3046 298.923 51.982 296.214 53.3368 293.575 54.6203 291.401 56.7239 289.689 59.6474 287.978 62.571 287.122 66.2432 287.122 70.6642 287.122 75.1565 287.978 78.8644 289.689 81.7879 291.401 84.7115 293.575 86.8506 296.214 88.2054 298.923 89.5603 301.776 90.2377 304.771 90.2377ZM350.591 98.5805C349.236 98.5805 348.096 98.117 347.169 97.19 346.242 96.263 345.778 95.1221 345.778 93.7673L345.778 47.8819C345.778 46.5271 346.242 45.3862 347.169 44.4593 348.096 43.461 349.236 42.9618 350.591 42.9618 351.946 42.9618 353.087 43.461 354.014 44.4593 355.012 45.3862 355.511 46.5271 355.511 47.8819L355.511 52.4812C360.503 45.7784 366.1 42.427 372.304 42.427L372.839 42.427C374.194 42.427 375.299 42.8905 376.154 43.8175 377.081 44.7445 377.545 45.8854 377.545 47.2402 377.545 48.595 377.081 49.7002 376.154 50.5559 375.227 51.4116 374.051 51.8394 372.625 51.8394L372.09 51.8394C368.667 51.8394 365.53 52.6951 362.678 54.4064 359.825 56.0465 357.437 58.3283 355.511 61.2518L355.511 93.7673C355.511 95.1221 355.012 96.263 354.014 97.19 353.087 98.117 351.946 98.5805 350.591 98.5805ZM391.536 98.5805C390.182 98.5805 389.041 98.117 388.114 97.19 387.187 96.263 386.723 95.1221 386.723 93.7673L386.723 24.351C386.723 22.9962 387.187 21.8553 388.114 20.9283 389.041 19.93 390.182 19.4309 391.536 19.4309 392.891 19.4309 394.032 19.93 394.959 20.9283 395.957 21.8553 396.457 22.9962 396.457 24.351L396.457 68.0972 421.913 44.5662C422.982 43.6392 424.052 43.1757 425.122 43.1757 426.762 43.1757 427.938 43.6392 428.651 44.5662 429.436 45.4932 429.828 46.5984 429.828 47.8819 429.828 49.0941 429.222 50.3063 428.009 51.5185L412.607 65.3162 431.967 90.9864C432.68 91.9134 433.036 92.876 433.036 93.8743 433.036 95.3004 432.573 96.4413 431.646 97.297 430.719 98.1526 429.543 98.5805 428.116 98.5805 427.403 98.5805 426.69 98.4022 425.977 98.0457 425.264 97.6891 424.658 97.19 424.159 96.5482L405.762 71.5199 396.457 79.9696 396.457 93.7673C396.457 95.1221 395.957 96.263 394.959 97.19 394.032 98.117 392.891 98.5805 391.536 98.5805ZM462.134 99.1153C455.003 99.1153 448.514 97.5109 442.667 94.3021 441.455 93.4464 440.849 92.2699 440.849 90.7725 440.849 89.6316 441.241 88.6333 442.026 87.7776 442.81 86.9219 443.808 86.4941 445.02 86.4941 445.662 86.4941 446.304 86.6367 446.946 86.9219 449.227 87.9202 451.509 88.7046 453.791 89.275 456.073 89.8455 458.64 90.1307 461.492 90.1307 469.407 90.1307 473.365 87.5993 473.365 82.5366 473.365 80.8966 472.438 79.6487 470.584 78.7931 468.801 77.9374 465.842 76.9748 461.706 75.9052 457.499 74.9069 454.005 73.873 451.224 72.8034 448.514 71.7338 446.161 70.1294 444.165 67.9902 442.239 65.7797 441.277 62.8918 441.277 59.3265 441.277 54.3351 443.059 50.2707 446.625 47.1332 450.261 43.9958 455.431 42.427 462.134 42.427 467.624 42.427 472.794 43.3184 477.643 45.101 478.641 45.3862 479.39 45.921 479.889 46.7054 480.459 47.4898 480.745 48.3098 480.745 49.1654 480.745 50.3063 480.317 51.3046 479.461 52.1603 478.677 53.016 477.678 53.4438 476.466 53.4438 476.11 53.4438 475.646 53.3725 475.076 53.2299 470.94 51.9464 466.876 51.3046 462.883 51.3046 459.032 51.3046 456.001 52.0177 453.791 53.4438 451.652 54.7986 450.582 56.5813 450.582 58.7917 450.582 60.9309 451.581 62.4997 453.577 63.4979 455.574 64.4962 458.675 65.4588 462.883 66.3858 467.09 67.4554 470.512 68.525 473.151 69.5946 475.789 70.5929 478.035 72.1973 479.889 74.4077 481.814 76.6182 482.777 79.5774 482.777 83.2853 482.777 87.8489 480.959 91.6281 477.322 94.623 473.757 97.6178 468.694 99.1153 462.134 99.1153Z" transform="matrix(1 0 0 1.00586 378 284)"/><path d="M185.042 34.4671 230.693 18.7103 276.342 34.4671C277.429 34.843 278.724 35.1413 280.145 35.3448 281.569 35.5482 283.096 35.653 284.635 35.653 286.175 35.653 287.702 35.5482 289.123 35.3448 290.547 35.1413 291.84 34.843 292.929 34.4671 294.019 34.0911 294.883 33.6448 295.472 33.1535 296.062 32.6624 296.365 32.1358 296.365 31.6041 296.365 31.0722 296.062 30.5459 295.472 30.0546 294.883 29.5634 294.019 29.1169 292.929 28.741L238.926 10.1009C237.839 9.72439 236.546 9.42571 235.122 9.22193 233.699 9.01813 232.174 8.91324 230.632 8.91324 229.093 8.91324 227.566 9.01813 226.142 9.22193 224.718 9.42571 223.426 9.72439 222.338 10.1009L168.336 28.741C167.245 29.1167 166.38 29.563 165.789 30.0543 165.199 30.5455 164.895 31.0722 164.895 31.6041 164.895 32.1358 165.199 32.6626 165.789 33.1539 166.38 33.645 167.245 34.0914 168.336 34.4671 172.924 36.0102 180.454 36.0509 185.042 34.4671Z" transform="matrix(1 0 0 1.00586 378 284)"/><path d="M157.096 70.5817C154.561 66.7658 151.915 64.0082 149.13 62.3648 146.344 60.6936 143.921 60.1087 141.776 60.5822 139.743 61.0836 137.988 62.2256 136.595 64.0639 135.37 65.7073 134.813 67.5735 134.813 69.6626L134.813 70.1918C134.813 72.3644 135.119 74.5927 135.816 76.8489 136.066 77.5452 136.205 77.5452 136.345 76.8489 136.679 75.1219 137.487 73.8406 138.74 73.0607 140.021 72.2808 141.693 72.3087 143.782 73.1164 145.871 73.9521 147.904 75.7626 149.91 78.4087 153.475 83.1995 157.653 86.1242 162.444 87.1548 168.627 88.0461 173.279 86.0685 176.426 81.3333 177.29 79.6342 177.986 78.158 178.376 76.8489 178.627 75.9854 178.516 75.9018 177.986 76.5982 176.677 78.3251 174.922 79.4671 172.694 79.9406 170.466 80.4977 167.931 79.9406 165.062 78.548 162.193 76.9603 159.547 74.3699 157.096 70.5817ZM170.939 59.4959C166.594 52.9502 161.887 49.3014 156.845 48.3822 152.834 47.7694 148.489 49.1621 143.782 52.5603 143.169 53.0059 142.89 53.2288 142.918 53.2845 142.974 53.3402 143.336 53.1731 144.032 52.8388 150.996 49.4406 157.709 53.0059 164.143 63.5347 165.536 65.8744 166.984 67.7128 168.516 69.0219 170.048 70.3311 171.468 71.111 172.833 71.3616 174.17 71.5845 175.396 71.5845 176.482 71.2502 177.568 70.8881 178.543 70.3311 179.379 69.5511 179.379 67.8799 179.128 66.0137 178.516 64.0639 177.123 64.3982 175.869 64.2868 174.783 63.7297 173.697 63.2283 172.416 61.7521 170.939 59.4959ZM157.096 42.3379C164.756 42.3379 171.301 45.1233 176.733 50.5548 182.164 55.9863 184.95 62.532 184.95 70.1918 184.95 77.8516 182.164 84.3973 176.733 89.8288 171.301 95.2603 164.756 98.0457 157.096 98.0457 149.436 98.0457 142.89 95.2603 137.459 89.8288 132.027 84.3973 129.242 77.8516 129.242 70.1918 129.242 62.532 132.027 55.9863 137.459 50.5548 142.89 45.1233 149.436 42.3379 157.096 42.3379Z" transform="matrix(1 0 0 1.00586 378 284)"/></g></svg>