<svg width="31" height="31" viewBox="0 0 31 31" fill="none" xmlns="http://www.w3.org/2000/svg">
<path d="M22.7705 20.0833H21.3551L20.8534 19.5996C21.9731 18.2988 22.7914 16.7666 23.2498 15.1126C23.7083 13.4586 23.7954 11.7237 23.5051 10.0321C22.663 5.05127 18.5063 1.07377 13.4896 0.464599C11.726 0.241475 9.9346 0.424773 8.25265 1.00047C6.5707 1.57616 5.04274 2.52899 3.78568 3.78605C2.52863 5.0431 1.57579 6.57107 1.0001 8.25302C0.424407 9.93497 0.241109 11.7263 0.464233 13.49C1.0734 18.5067 5.0509 22.6633 10.0317 23.5054C11.7233 23.7958 13.4582 23.7086 15.1122 23.2502C16.7662 22.7918 18.2984 21.9735 19.5992 20.8538L20.083 21.3554V22.7708L27.6976 30.3854C28.4322 31.12 29.6326 31.12 30.3672 30.3854C31.1017 29.6508 31.1017 28.4504 30.3672 27.7158L22.7705 20.0833ZM12.0205 20.0833C7.55923 20.0833 3.95798 16.4821 3.95798 12.0208C3.95798 7.5596 7.55923 3.95835 12.0205 3.95835C16.4817 3.95835 20.083 7.5596 20.083 12.0208C20.083 16.4821 16.4817 20.0833 12.0205 20.0833Z" fill="black"/>
</svg>
