<svg width="289" height="63" viewBox="0 0 289 63" fill="none" xmlns="http://www.w3.org/2000/svg">
<path d="M10.6425 51.0234H3.5475V31.1172H0V24.2744H3.5475V20.1592C3.5475 17.3519 4.11859 15.1587 5.26078 13.5796C6.40297 12.0005 8.39844 11.2109 11.2472 11.2109H16.0041V18.1016H13.0209C11.9191 18.1016 11.2539 18.3328 11.0255 18.7954C10.797 19.258 10.6828 19.9359 10.6828 20.8291L10.6425 24.2744H16.0444L15.3994 31.1172H10.6425V51.0234Z" fill="black"/>
<path d="M103.198 20.7949C103.857 20.3027 104.437 19.667 104.94 18.8877C105.443 18.1084 105.816 17.2266 106.059 16.2422C105.435 16.7344 104.776 17.1445 104.082 17.4727C103.388 17.8008 102.66 18.0674 101.897 18.2725C101.307 17.4521 100.596 16.8164 99.7639 16.3652C98.9315 15.9141 98.047 15.6885 97.1106 15.6885C95.3071 15.6885 93.7637 16.4883 92.4804 18.0879C91.1971 19.6875 90.5555 21.6152 90.5555 23.8711C90.5555 24.1582 90.5728 24.4658 90.6075 24.7939C90.6422 25.1221 90.6768 25.4297 90.7115 25.7168C88.0062 25.5527 85.483 24.7017 83.1419 23.1636C80.8008 21.6255 78.8325 19.626 77.2371 17.165C76.9249 17.7803 76.6995 18.4365 76.5607 19.1338C76.422 19.8311 76.3526 20.5488 76.3526 21.2871C76.3526 22.6816 76.6128 23.9839 77.133 25.1938C77.6533 26.4038 78.3643 27.3779 79.266 28.1162C78.7111 28.0752 78.1822 27.9624 77.6793 27.7778C77.1764 27.5933 76.6995 27.3574 76.2486 27.0703V27.1934C76.2486 29.1621 76.7515 30.895 77.7573 32.3921C78.7631 33.8892 80.0291 34.8223 81.5551 35.1914C81.2777 35.2734 80.9915 35.3452 80.6967 35.4067C80.4019 35.4683 80.0984 35.499 79.7863 35.499C79.5782 35.499 79.3701 35.4785 79.162 35.4375C78.9539 35.3965 78.7631 35.3555 78.5897 35.3145C79.0059 36.9551 79.769 38.3086 80.8788 39.375C81.9887 40.4414 83.2546 40.9951 84.6766 41.0361C83.5668 42.1025 82.3182 42.9434 80.9308 43.5586C79.5435 44.1738 78.0868 44.4814 76.5607 44.4814C76.2833 44.4814 76.0145 44.4814 75.7544 44.4814C75.4942 44.4814 75.2428 44.4609 75 44.4199C76.4567 45.5684 78.0348 46.4604 79.7343 47.0962C81.4338 47.7319 83.2026 48.0498 85.0408 48.0498C88.0583 48.0498 90.7289 47.3525 93.0527 45.958C95.3764 44.5635 97.3274 42.7485 98.9055 40.5132C100.484 38.2778 101.671 35.7656 102.469 32.9766C103.302 30.2285 103.718 27.501 103.718 24.7939C103.718 24.6299 103.718 24.4556 103.718 24.271C103.718 24.0864 103.7 23.9121 103.666 23.748C104.325 23.1738 104.932 22.5278 105.487 21.8101C106.042 21.0923 106.527 20.3232 106.943 19.5029C106.354 19.8311 105.747 20.1079 105.122 20.3335C104.498 20.5591 103.857 20.7129 103.198 20.7949Z" fill="black"/>
<g clip-path="url(#clip0_0_1)">
<path d="M176.141 9C173.624 9 171.425 9.52018 169.543 10.5605C167.636 11.5703 166.054 12.8784 164.795 14.4849C163.536 16.0913 162.589 17.889 161.953 19.8779C161.318 21.8363 161 23.764 161 25.6611C161 27.9561 161.356 30.0368 162.068 31.9033C162.78 33.7699 163.873 35.0856 165.348 35.8506C165.45 35.9118 165.558 35.9424 165.672 35.9424C165.787 35.9424 165.907 35.9118 166.034 35.8506C166.136 35.7894 166.219 35.6976 166.282 35.5752C166.346 35.4528 166.39 35.3304 166.416 35.208C166.467 34.9632 166.537 34.6037 166.626 34.1294C166.715 33.6551 166.785 33.2956 166.835 33.0508C166.912 32.7754 166.924 32.5076 166.874 32.2476C166.823 31.9875 166.708 31.7656 166.53 31.582C166.047 30.8171 165.685 29.9832 165.443 29.0806C165.202 28.1779 165.094 27.2676 165.119 26.3496C165.068 24.6361 165.303 22.9914 165.825 21.4155C166.346 19.8397 167.102 18.4551 168.094 17.2617C169.06 16.0378 170.198 15.1045 171.508 14.4619C172.817 13.8193 174.171 13.5133 175.569 13.5439C176.739 13.4215 177.877 13.5975 178.983 14.0718C180.089 14.5461 181.074 15.2728 181.939 16.2519C182.778 17.2311 183.413 18.3786 183.846 19.6943C184.278 21.0101 184.456 22.3717 184.38 23.7793C184.38 25.707 184.227 27.5277 183.922 29.2412C183.591 30.9548 183.134 32.4541 182.549 33.7393C181.964 35.0244 181.252 36.0495 180.413 36.8145C179.599 37.5794 178.684 37.9619 177.667 37.9619C177.133 37.9619 176.625 37.8242 176.141 37.5488C175.658 37.2734 175.252 36.8909 174.921 36.4014C174.59 35.8812 174.374 35.3075 174.273 34.6802C174.171 34.0529 174.184 33.4333 174.311 32.8213C174.743 31.2913 175.112 29.7308 175.417 28.1396C175.722 26.5485 175.976 24.9574 176.18 23.3662C176.256 22.8766 176.23 22.387 176.103 21.8975C175.976 21.4079 175.786 20.9642 175.531 20.5664C175.252 20.1992 174.921 19.9085 174.54 19.6943C174.158 19.4801 173.751 19.373 173.319 19.373C172.2 19.373 171.241 20.0309 170.44 21.3467C169.639 22.6624 169.238 24.2995 169.238 26.2578C169.238 26.9922 169.295 27.7113 169.41 28.415C169.524 29.1188 169.696 29.8073 169.925 30.4805C169.925 30.4805 169.798 31.1383 169.543 32.4541C169.314 33.7699 169.041 35.2692 168.723 36.9521C168.405 38.6351 168.094 40.2721 167.789 41.8633C167.484 43.4238 167.28 44.4795 167.179 45.0303C166.95 46.7132 166.829 48.4038 166.816 50.1021C166.804 51.8003 166.912 53.4909 167.141 55.1738C167.141 55.235 167.16 55.2886 167.198 55.3345C167.236 55.3804 167.28 55.4186 167.331 55.4492C167.382 55.4492 167.439 55.4416 167.503 55.4263C167.566 55.411 167.611 55.3727 167.636 55.3115C168.475 53.9958 169.219 52.6035 169.867 51.1348C170.516 49.666 171.043 48.1514 171.45 46.5908C171.577 46.0094 171.857 44.6401 172.289 42.4829C172.722 40.3257 172.938 39.2471 172.938 39.2471C173.523 40.318 174.273 41.1442 175.188 41.7256C176.103 42.307 177.082 42.5977 178.125 42.5977C179.828 42.5977 181.379 42.1234 182.778 41.1748C184.202 40.2568 185.416 38.987 186.42 37.3652C187.424 35.7435 188.194 33.8158 188.728 31.582C189.287 29.3483 189.567 26.9157 189.567 24.2842C189.541 22.2034 189.179 20.2069 188.48 18.2944C187.78 16.382 186.795 14.7067 185.524 13.2686C184.278 11.8304 182.841 10.7441 181.214 10.0098C179.587 9.27539 177.896 8.9388 176.141 9Z" fill="black"/>
</g>
<path d="M260.332 13.8428H241.836C240.222 13.8428 238.848 14.5298 237.715 15.9038C236.581 17.2778 236.015 18.9287 236.015 20.8564V42.9434C236.015 44.8301 236.581 46.4604 237.715 47.8345C238.848 49.2085 240.222 49.8955 241.836 49.8955H260.332C261.946 49.8955 263.32 49.2085 264.453 47.8345C265.587 46.4604 266.153 44.8301 266.153 42.9434V20.8564C266.153 18.9287 265.587 17.2778 264.453 15.9038C263.32 14.5298 261.946 13.8428 260.332 13.8428ZM261.053 17.4727H261.62V22.8252L257.138 22.8867L257.086 17.4727H261.053ZM246.061 27.3164C246.542 26.4961 247.151 25.8501 247.89 25.3784C248.628 24.9067 249.444 24.6709 250.337 24.6709C251.196 24.6709 252.003 24.9067 252.758 25.3784C253.514 25.8501 254.132 26.4961 254.613 27.3164C254.922 27.8086 255.163 28.3726 255.334 29.0083C255.506 29.644 255.592 30.29 255.592 30.9463C255.592 32.71 255.077 34.207 254.046 35.4375C253.016 36.668 251.78 37.2832 250.337 37.2832C248.86 37.2832 247.606 36.668 246.576 35.4375C245.546 34.207 245.031 32.71 245.031 30.9463C245.031 30.29 245.125 29.644 245.314 29.0083C245.503 28.3726 245.752 27.8086 246.061 27.3164ZM263.114 42.8818C263.114 43.8252 262.839 44.625 262.289 45.2812C261.74 45.9375 261.07 46.2656 260.28 46.2656H241.888C241.098 46.2656 240.42 45.9375 239.853 45.2812C239.286 44.625 239.003 43.8252 239.003 42.8818V28.3008H243.485C243.313 28.834 243.167 29.4082 243.047 30.0234C242.927 30.6387 242.867 31.2744 242.867 31.9307C242.867 34.5967 243.674 36.8833 245.288 38.7905C246.902 40.6978 248.826 41.6514 251.058 41.6514C253.325 41.6514 255.257 40.6978 256.854 38.7905C258.451 36.8833 259.25 34.5967 259.25 31.9307C259.25 31.2744 259.198 30.6387 259.095 30.0234C258.992 29.4082 258.855 28.834 258.683 28.3008H263.114V42.8818Z" fill="black"/>
<defs>
<clipPath id="clip0_0_1">
<rect width="31" height="47" fill="white" transform="matrix(1 0 0 -1 161 56)"/>
</clipPath>
</defs>
</svg>
