<svg width="17" height="30" viewBox="0 0 17 30" fill="none" xmlns="http://www.w3.org/2000/svg">
<path d="M6.68 7.064C4.86667 7.36267 3.96 8.248 3.96 9.72C3.96 11.1493 4.888 12.2267 6.744 12.952C6.91467 12.9947 7 12.9307 7 12.76V7.288C7 7.096 6.89333 7.02133 6.68 7.064ZM12.664 20.44C12.664 19.5867 12.4613 18.904 12.056 18.392C11.672 17.8587 10.9787 17.4 9.976 17.016C9.912 16.9947 9.848 17.0053 9.784 17.048C9.72 17.0693 9.688 17.112 9.688 17.176V23.288C9.688 23.352 9.72 23.416 9.784 23.48C9.848 23.5227 9.912 23.5333 9.976 23.512C11.768 23.1067 12.664 22.0827 12.664 20.44ZM6.712 16.024C4.57867 15.3413 3.032 14.488 2.072 13.464C1.13333 12.44 0.664 11.192 0.664 9.72C0.664 8.16267 1.16533 6.91467 2.168 5.976C3.192 5.016 4.696 4.42933 6.68 4.216C6.89333 4.17333 7 4.06667 7 3.896V2.264C7 1.90133 7.128 1.592 7.384 1.336C7.66133 1.05866 7.98133 0.919998 8.344 0.919998C8.70667 0.919998 9.016 1.05866 9.272 1.336C9.54933 1.592 9.688 1.90133 9.688 2.264V3.896C9.688 4.088 9.77333 4.184 9.944 4.184C11.3733 4.29067 12.6427 4.46133 13.752 4.696C14.2 4.78133 14.552 5.016 14.808 5.4C15.0853 5.76267 15.224 6.168 15.224 6.616C15.224 6.97867 15.064 7.27733 14.744 7.512C14.4453 7.72533 14.1147 7.77867 13.752 7.672C12.536 7.33067 11.2773 7.10667 9.976 7C9.784 7 9.688 7.08533 9.688 7.256V13.528C9.688 13.6773 9.784 13.7947 9.976 13.88C12.216 14.5627 13.784 15.416 14.68 16.44C15.576 17.4427 16.024 18.776 16.024 20.44C16.024 22.1253 15.512 23.48 14.488 24.504C13.464 25.5067 11.9707 26.136 10.008 26.392C9.79467 26.4347 9.688 26.5413 9.688 26.712V28.344C9.688 28.7067 9.54933 29.0267 9.272 29.304C9.016 29.5813 8.70667 29.72 8.344 29.72C7.98133 29.72 7.66133 29.5813 7.384 29.304C7.128 29.0267 7 28.7067 7 28.344V26.776C7 26.584 6.904 26.488 6.712 26.488C5.24 26.3813 3.896 26.1467 2.68 25.784C2.21067 25.6347 1.83733 25.368 1.56 24.984C1.28267 24.5787 1.144 24.1307 1.144 23.64C1.144 23.2773 1.29333 23 1.592 22.808C1.912 22.616 2.24267 22.584 2.584 22.712C3.864 23.2027 5.24 23.512 6.712 23.64C6.904 23.64 7 23.5547 7 23.384V16.376C7 16.2267 6.904 16.1093 6.712 16.024Z" fill="black"/>
</svg>
