<svg width="63" height="54" viewBox="0 0 63 54" fill="none" xmlns="http://www.w3.org/2000/svg">
<path d="M62.3824 1.58824H17.2941C16.9544 1.58824 16.6765 1.87412 16.6765 2.22353V6.67059C16.6765 7.02 16.9544 7.30588 17.2941 7.30588H62.3824C62.7221 7.30588 63 7.02 63 6.67059V2.22353C63 1.87412 62.7221 1.58824 62.3824 1.58824ZM62.3824 24.1412H17.2941C16.9544 24.1412 16.6765 24.4271 16.6765 24.7765V29.2235C16.6765 29.5729 16.9544 29.8588 17.2941 29.8588H62.3824C62.7221 29.8588 63 29.5729 63 29.2235V24.7765C63 24.4271 62.7221 24.1412 62.3824 24.1412ZM62.3824 46.6941H17.2941C16.9544 46.6941 16.6765 46.98 16.6765 47.3294V51.7765C16.6765 52.1259 16.9544 52.4118 17.2941 52.4118H62.3824C62.7221 52.4118 63 52.1259 63 51.7765V47.3294C63 46.98 62.7221 46.6941 62.3824 46.6941ZM0 4.44706C-8.46049e-09 5.03105 0.111832 5.60933 0.329109 6.14887C0.546387 6.68842 0.864856 7.17866 1.26633 7.59161C1.66781 8.00455 2.14443 8.33212 2.66899 8.5556C3.19354 8.77909 3.75576 8.89412 4.32353 8.89412C4.8913 8.89412 5.45352 8.77909 5.97807 8.5556C6.50263 8.33212 6.97925 8.00455 7.38073 7.59161C7.7822 7.17866 8.10067 6.68842 8.31795 6.14887C8.53523 5.60933 8.64706 5.03105 8.64706 4.44706C8.64706 3.86306 8.53523 3.28479 8.31795 2.74524C8.10067 2.2057 7.7822 1.71546 7.38073 1.30251C6.97925 0.889566 6.50263 0.561997 5.97807 0.338512C5.45352 0.115026 4.8913 0 4.32353 0C3.75576 0 3.19354 0.115026 2.66899 0.338512C2.14443 0.561997 1.66781 0.889566 1.26633 1.30251C0.864856 1.71546 0.546387 2.2057 0.329109 2.74524C0.111832 3.28479 -8.46049e-09 3.86306 0 4.44706ZM0 27C-8.46049e-09 27.584 0.111832 28.1623 0.329109 28.7018C0.546387 29.2414 0.864856 29.7316 1.26633 30.1445C1.66781 30.5575 2.14443 30.8851 2.66899 31.1085C3.19354 31.332 3.75576 31.4471 4.32353 31.4471C4.8913 31.4471 5.45352 31.332 5.97807 31.1085C6.50263 30.8851 6.97925 30.5575 7.38073 30.1445C7.7822 29.7316 8.10067 29.2414 8.31795 28.7018C8.53523 28.1623 8.64706 27.584 8.64706 27C8.64706 26.416 8.53523 25.8377 8.31795 25.2982C8.10067 24.7586 7.7822 24.2684 7.38073 23.8555C6.97925 23.4425 6.50263 23.1149 5.97807 22.8915C5.45352 22.668 4.8913 22.5529 4.32353 22.5529C3.75576 22.5529 3.19354 22.668 2.66899 22.8915C2.14443 23.1149 1.66781 23.4425 1.26633 23.8555C0.864856 24.2684 0.546387 24.7586 0.329109 25.2982C0.111832 25.8377 -8.46049e-09 26.416 0 27ZM0 49.5529C-8.46049e-09 50.1369 0.111832 50.7152 0.329109 51.2548C0.546387 51.7943 0.864856 52.2845 1.26633 52.6975C1.66781 53.1104 2.14443 53.438 2.66899 53.6615C3.19354 53.885 3.75576 54 4.32353 54C4.8913 54 5.45352 53.885 5.97807 53.6615C6.50263 53.438 6.97925 53.1104 7.38073 52.6975C7.7822 52.2845 8.10067 51.7943 8.31795 51.2548C8.53523 50.7152 8.64706 50.1369 8.64706 49.5529C8.64706 48.9689 8.53523 48.3907 8.31795 47.8511C8.10067 47.3116 7.7822 46.8213 7.38073 46.4084C6.97925 45.9955 6.50263 45.6679 5.97807 45.4444C5.45352 45.2209 4.8913 45.1059 4.32353 45.1059C3.75576 45.1059 3.19354 45.2209 2.66899 45.4444C2.14443 45.6679 1.66781 45.9955 1.26633 46.4084C0.864856 46.8213 0.546387 47.3116 0.329109 47.8511C0.111832 48.3907 -8.46049e-09 48.9689 0 49.5529Z" fill="black"/>
</svg>
