<svg width="62" height="58" viewBox="0 0 62 58" fill="none" xmlns="http://www.w3.org/2000/svg">
<path fill-rule="evenodd" clip-rule="evenodd" d="M11.0714 5.17857C11.0714 6.55201 10.4882 7.8692 9.45006 8.84037C8.41191 9.81154 7.00388 10.3571 5.53571 10.3571C4.06755 10.3571 2.65952 9.81154 1.62137 8.84037C0.583225 7.8692 0 6.55201 0 5.17857C0 3.80513 0.583225 2.48794 1.62137 1.51677C2.65952 0.545598 4.06755 0 5.53571 0C7.00388 0 8.41191 0.545598 9.45006 1.51677C10.4882 2.48794 11.0714 3.80513 11.0714 5.17857ZM62 5.17857C62 6.55201 61.4168 7.8692 60.3786 8.84037C59.3405 9.81154 57.9325 10.3571 56.4643 10.3571C54.9961 10.3571 53.5881 9.81154 52.5499 8.84037C51.5118 7.8692 50.9286 6.55201 50.9286 5.17857C50.9286 3.80513 51.5118 2.48794 52.5499 1.51677C53.5881 0.545598 54.9961 0 56.4643 0C57.9325 0 59.3405 0.545598 60.3786 1.51677C61.4168 2.48794 62 3.80513 62 5.17857ZM56.4643 34.1786C57.9325 34.1786 59.3405 33.633 60.3786 32.6618C61.4168 31.6906 62 30.3734 62 29C62 27.6266 61.4168 26.3094 60.3786 25.3382C59.3405 24.367 57.9325 23.8214 56.4643 23.8214C54.9961 23.8214 53.5881 24.367 52.5499 25.3382C51.5118 26.3094 50.9286 27.6266 50.9286 29C50.9286 30.3734 51.5118 31.6906 52.5499 32.6618C53.5881 33.633 54.9961 34.1786 56.4643 34.1786ZM62 52.8214C62 54.1949 61.4168 55.5121 60.3786 56.4832C59.3405 57.4544 57.9325 58 56.4643 58C54.9961 58 53.5881 57.4544 52.5499 56.4832C51.5118 55.5121 50.9286 54.1949 50.9286 52.8214C50.9286 51.448 51.5118 50.1308 52.5499 49.1596C53.5881 48.1885 54.9961 47.6429 56.4643 47.6429C57.9325 47.6429 59.3405 48.1885 60.3786 49.1596C61.4168 50.1308 62 51.448 62 52.8214ZM5.53571 34.1786C7.00388 34.1786 8.41191 33.633 9.45006 32.6618C10.4882 31.6906 11.0714 30.3734 11.0714 29C11.0714 27.6266 10.4882 26.3094 9.45006 25.3382C8.41191 24.367 7.00388 23.8214 5.53571 23.8214C4.06755 23.8214 2.65952 24.367 1.62137 25.3382C0.583225 26.3094 0 27.6266 0 29C0 30.3734 0.583225 31.6906 1.62137 32.6618C2.65952 33.633 4.06755 34.1786 5.53571 34.1786ZM36.5357 29C36.5357 30.3734 35.9525 31.6906 34.9143 32.6618C33.8762 33.633 32.4682 34.1786 31 34.1786C29.5318 34.1786 28.1238 33.633 27.0857 32.6618C26.0475 31.6906 25.4643 30.3734 25.4643 29C25.4643 27.6266 26.0475 26.3094 27.0857 25.3382C28.1238 24.367 29.5318 23.8214 31 23.8214C32.4682 23.8214 33.8762 24.367 34.9143 25.3382C35.9525 26.3094 36.5357 27.6266 36.5357 29ZM31 58C32.4682 58 33.8762 57.4544 34.9143 56.4832C35.9525 55.5121 36.5357 54.1949 36.5357 52.8214C36.5357 51.448 35.9525 50.1308 34.9143 49.1596C33.8762 48.1885 32.4682 47.6429 31 47.6429C29.5318 47.6429 28.1238 48.1885 27.0857 49.1596C26.0475 50.1308 25.4643 51.448 25.4643 52.8214C25.4643 54.1949 26.0475 55.5121 27.0857 56.4832C28.1238 57.4544 29.5318 58 31 58ZM36.5357 5.17857C36.5357 6.55201 35.9525 7.8692 34.9143 8.84037C33.8762 9.81154 32.4682 10.3571 31 10.3571C29.5318 10.3571 28.1238 9.81154 27.0857 8.84037C26.0475 7.8692 25.4643 6.55201 25.4643 5.17857C25.4643 3.80513 26.0475 2.48794 27.0857 1.51677C28.1238 0.545598 29.5318 0 31 0C32.4682 0 33.8762 0.545598 34.9143 1.51677C35.9525 2.48794 36.5357 3.80513 36.5357 5.17857ZM5.53571 58C7.00388 58 8.41191 57.4544 9.45006 56.4832C10.4882 55.5121 11.0714 54.1949 11.0714 52.8214C11.0714 51.448 10.4882 50.1308 9.45006 49.1596C8.41191 48.1885 7.00388 47.6429 5.53571 47.6429C4.06755 47.6429 2.65952 48.1885 1.62137 49.1596C0.583225 50.1308 0 51.448 0 52.8214C0 54.1949 0.583225 55.5121 1.62137 56.4832C2.65952 57.4544 4.06755 58 5.53571 58Z" fill="black"/>
</svg>
