<svg width="54" height="54" viewBox="0 0 54 54" fill="none" xmlns="http://www.w3.org/2000/svg">
<path d="M34.9134 21L32.0447 20.508C31.9755 20.9376 31.9977 21.3776 32.11 21.7974C32.2222 22.2172 32.4218 22.6068 32.6948 22.9391C32.9677 23.2713 33.3076 23.5384 33.6907 23.7216C34.0739 23.9048 34.4911 23.9998 34.9134 24V21ZM2.90945 21V18C2.13782 18 1.39779 18.3161 0.852159 18.8787C0.306531 19.4413 0 20.2044 0 21H2.90945ZM8.72836 54H41.7798V48H8.72836V54ZM45.2711 18H34.9134V24H45.2711V18ZM37.7851 21.492L40.1272 6.987L34.3897 6L32.0447 20.508L37.7851 21.492ZM34.3897 3.25506e-07H33.7671V6H34.3897V3.25506e-07ZM24.0815 5.343L16.7643 16.665L21.6056 19.995L28.9258 8.673L24.0815 5.343ZM14.3436 18H2.90945V24H14.3436V18ZM0 21V45H5.81891V21H0ZM50.3394 46.764L53.8307 28.764L48.1282 27.588L44.6368 45.588L50.3394 46.764ZM16.7643 16.665C16.4985 17.0758 16.1385 17.4125 15.7162 17.6454C15.294 17.8783 14.8225 18.0001 14.3436 18V24C15.7805 23.9999 17.1951 23.634 18.4619 22.9348C19.7288 22.2357 20.8086 21.2248 21.6056 19.992L16.7643 16.662V16.665ZM40.1272 6.987C40.2662 6.12761 40.222 5.24732 39.9977 4.40732C39.7734 3.56732 39.3744 2.78777 38.8284 2.12285C38.2824 1.45793 37.6025 0.923597 36.836 0.556998C36.0695 0.190399 35.2347 0.000328851 34.3897 3.25506e-07V6L40.1272 6.987ZM45.2711 24C45.7016 23.9998 46.1268 24.0982 46.516 24.2879C46.9052 24.4777 47.2487 24.7542 47.5218 25.0974C47.7948 25.4407 47.9906 25.8421 48.0949 26.2728C48.1993 26.7035 48.2126 27.1527 48.1282 27.588L53.8307 28.764C54.0838 27.4585 54.0528 26.1115 53.74 24.8198C53.4273 23.5282 52.8405 22.3242 52.0221 21.2946C51.2036 20.265 50.1738 19.4355 49.0069 18.8658C47.84 18.2961 46.5651 18.0004 45.274 18V24H45.2711ZM41.7798 54C43.7978 54.0001 45.7536 53.2792 47.3142 51.9599C48.8748 50.6406 49.9438 48.8045 50.3394 46.764L44.6368 45.588C44.5049 46.2688 44.1479 46.8814 43.6269 47.3212C43.1059 47.7611 42.4531 48.001 41.7798 48V54ZM33.7671 3.25506e-07C31.8509 -0.000459843 29.9642 0.486993 28.2745 1.41908C26.5849 2.35116 25.1446 3.69903 24.0815 5.343L28.9258 8.673C29.457 7.85095 30.1768 7.17685 31.0214 6.71055C31.866 6.24426 32.8091 6.00018 33.7671 6V3.25506e-07ZM8.72836 48C7.95672 48 7.21669 47.6839 6.67107 47.1213C6.12544 46.5587 5.81891 45.7957 5.81891 45H0C0 47.3869 0.919593 49.6761 2.55648 51.364C4.19336 53.0518 6.41345 54 8.72836 54V48Z" fill="black"/>
<path d="M14.5472 21V51" stroke="black"/>
</svg>
