<svg width="33" height="32" viewBox="0 0 33 32" fill="none" xmlns="http://www.w3.org/2000/svg">
<path d="M23.6121 0C20.7544 0 18.2183 1.26877 16.5 3.44952C14.7817 1.26877 12.2456 0 9.38793 0C6.89902 0.00338727 4.51291 1.11702 2.75299 3.09662C0.993061 5.07622 0.00301139 7.76017 0 10.5597C0 22.1339 15.0506 31.3817 15.6906 31.7704C15.9394 31.9211 16.2175 32 16.5 32C16.7825 32 17.0606 31.9211 17.3094 31.7704C17.9494 31.3817 33 22.1339 33 10.5597C32.997 7.76017 32.0069 5.07622 30.247 3.09662C28.4871 1.11702 26.101 0.00338727 23.6121 0ZM22.8312 22.7771C20.8501 24.6679 18.7324 26.3698 16.5 27.8649C14.2676 26.3698 12.1499 24.6679 10.1688 22.7771C7.08646 19.8027 3.41379 15.2668 3.41379 10.5597C3.41379 8.77754 4.04321 7.06832 5.16358 5.8081C6.28395 4.54789 7.80349 3.83991 9.38793 3.83991C11.9198 3.83991 14.0392 5.34387 14.9197 7.76621C15.0478 8.11934 15.2666 8.42153 15.5481 8.63424C15.8295 8.84696 16.1609 8.96056 16.5 8.96056C16.8391 8.96056 17.1705 8.84696 17.4519 8.63424C17.7334 8.42153 17.9522 8.11934 18.0803 7.76621C18.9608 5.34387 21.0802 3.83991 23.6121 3.83991C25.1965 3.83991 26.7161 4.54789 27.8364 5.8081C28.9568 7.06832 29.5862 8.77754 29.5862 10.5597C29.5862 15.2668 25.9135 19.8027 22.8312 22.7771Z" fill="black"/>
</svg>
