<svg width="33" height="32" viewBox="0 0 33 32" fill="none" xmlns="http://www.w3.org/2000/svg">
<path d="M28.875 6.4H24.75C24.75 2.864 21.0581 0 16.5 0C11.9419 0 8.25 2.864 8.25 6.4H4.125C1.85625 6.4 0 7.84 0 9.6V28.8C0 30.56 1.85625 32 4.125 32H28.875C31.1437 32 33 30.56 33 28.8V9.6C33 7.84 31.1437 6.4 28.875 6.4ZM16.5 3.2C18.7687 3.2 20.625 4.64 20.625 6.4H12.375C12.375 4.64 14.2312 3.2 16.5 3.2ZM28.875 28.8H4.125V9.6H8.25V12.8C8.25 13.68 9.17813 14.4 10.3125 14.4C11.4469 14.4 12.375 13.68 12.375 12.8V9.6H20.625V12.8C20.625 13.68 21.5531 14.4 22.6875 14.4C23.8219 14.4 24.75 13.68 24.75 12.8V9.6H28.875V28.8Z" fill="black"/>
</svg>
