<svg width="19" height="12" viewBox="0 0 19 12" fill="none" xmlns="http://www.w3.org/2000/svg">
<path d="M9.5 11.3344C9.28334 11.3344 9.07317 11.2937 8.8695 11.2125C8.66584 11.1312 8.49684 11.0229 8.3625 10.8875L0.887502 3.41249C0.589586 3.11457 0.440628 2.7354 0.440628 2.27499C0.440628 1.81457 0.589586 1.4354 0.887502 1.13749C1.18542 0.83957 1.56459 0.690613 2.025 0.690613C2.48542 0.690613 2.86459 0.83957 3.1625 1.13749L9.5 7.47499L15.8375 1.13749C16.1354 0.83957 16.5146 0.690613 16.975 0.690613C17.4354 0.690613 17.8146 0.83957 18.1125 1.13749C18.4104 1.4354 18.5594 1.81457 18.5594 2.27499C18.5594 2.7354 18.4104 3.11457 18.1125 3.41249L10.6375 10.8875C10.475 11.05 10.299 11.1654 10.1094 11.2336C9.91979 11.3019 9.71667 11.3354 9.5 11.3344Z" fill="black"/>
</svg>
