<svg width="39" height="24" viewBox="0 0 39 24" fill="none" xmlns="http://www.w3.org/2000/svg">
<path d="M10.4 3.872L7.04 14.784C7.01867 14.848 7.02933 14.912 7.072 14.976C7.11467 15.0187 7.168 15.04 7.232 15.04H13.632C13.696 15.04 13.7493 15.0187 13.792 14.976C13.8347 14.912 13.8453 14.848 13.824 14.784L10.464 3.872C10.464 3.85067 10.4533 3.84 10.432 3.84C10.4107 3.84 10.4 3.85067 10.4 3.872ZM2.4 24C1.952 24 1.58933 23.8187 1.312 23.456C1.056 23.0933 1.00267 22.6987 1.152 22.272L8 2.368C8.17067 1.856 8.48 1.44 8.928 1.12C9.376 0.799999 9.86667 0.639999 10.4 0.639999H10.592C11.1467 0.639999 11.6373 0.799999 12.064 1.12C12.512 1.44 12.8213 1.856 12.992 2.368L19.84 22.272C19.9893 22.6987 19.9253 23.0933 19.648 23.456C19.392 23.8187 19.04 24 18.592 24H18.464C17.9307 24 17.44 23.84 16.992 23.52C16.5653 23.2 16.2667 22.784 16.096 22.272L14.816 18.048C14.7947 17.8773 14.6773 17.792 14.464 17.792H6.4C6.208 17.792 6.09067 17.8773 6.048 18.048L4.768 22.272C4.61867 22.784 4.32 23.2 3.872 23.52C3.44533 23.84 2.95467 24 2.4 24ZM24.5633 15.968C24.5633 15.9893 24.5526 16 24.5312 16C24.5312 16 24.5312 16.0107 24.5312 16.032C24.5312 16.0533 24.5419 16.064 24.5633 16.064H31.4433C31.6353 16.064 31.7313 15.9787 31.7313 15.808V5.76C31.7313 5.73867 31.7206 5.728 31.6993 5.728C31.6566 5.728 31.6353 5.73867 31.6353 5.76L24.5633 15.968ZM22.4193 18.88C22.0353 18.88 21.7046 18.7413 21.4273 18.464C21.1499 18.1867 21.0113 17.856 21.0113 17.472C21.0113 16.5333 21.2779 15.68 21.8113 14.912L30.7393 2.048C31.3793 1.10933 32.2859 0.639999 33.4593 0.639999C33.9286 0.639999 34.3339 0.810666 34.6753 1.152C35.0166 1.49333 35.1873 1.89867 35.1873 2.368V15.808C35.1873 15.9787 35.2833 16.064 35.4753 16.064H37.5233C37.9073 16.064 38.2379 16.2027 38.5153 16.48C38.7926 16.7573 38.9313 17.088 38.9313 17.472C38.9313 17.856 38.7926 18.1867 38.5153 18.464C38.2379 18.7413 37.9073 18.88 37.5233 18.88H35.4753C35.2833 18.88 35.1873 18.976 35.1873 19.168V22.272C35.1873 22.7413 35.0166 23.1467 34.6753 23.488C34.3339 23.8293 33.9286 24 33.4593 24C32.9899 24 32.5846 23.8293 32.2433 23.488C31.9019 23.1467 31.7313 22.7413 31.7313 22.272V19.168C31.7313 18.976 31.6353 18.88 31.4433 18.88H22.4193Z" fill="black"/>
</svg>
