<svg width="39" height="25" viewBox="0 0 39 25" fill="none" xmlns="http://www.w3.org/2000/svg">
<path d="M10.4 3.872L7.04 14.784C7.01867 14.848 7.02933 14.912 7.072 14.976C7.11467 15.0187 7.168 15.04 7.232 15.04H13.632C13.696 15.04 13.7493 15.0187 13.792 14.976C13.8347 14.912 13.8453 14.848 13.824 14.784L10.464 3.872C10.464 3.85067 10.4533 3.84 10.432 3.84C10.4107 3.84 10.4 3.85067 10.4 3.872ZM2.4 24C1.952 24 1.58933 23.8187 1.312 23.456C1.056 23.0933 1.00267 22.6987 1.152 22.272L8 2.368C8.17067 1.856 8.48 1.44 8.928 1.12C9.376 0.799999 9.86667 0.639999 10.4 0.639999H10.592C11.1467 0.639999 11.6373 0.799999 12.064 1.12C12.512 1.44 12.8213 1.856 12.992 2.368L19.84 22.272C19.9893 22.6987 19.9253 23.0933 19.648 23.456C19.392 23.8187 19.04 24 18.592 24H18.464C17.9307 24 17.44 23.84 16.992 23.52C16.5653 23.2 16.2667 22.784 16.096 22.272L14.816 18.048C14.7947 17.8773 14.6773 17.792 14.464 17.792H6.4C6.208 17.792 6.09067 17.8773 6.048 18.048L4.768 22.272C4.61867 22.784 4.32 23.2 3.872 23.52C3.44533 23.84 2.95467 24 2.4 24ZM25.1073 23.744C24.6379 23.616 24.2646 23.3493 23.9873 22.944C23.7099 22.5387 23.5713 22.08 23.5713 21.568C23.5713 21.184 23.7313 20.896 24.0513 20.704C24.3926 20.4907 24.7446 20.448 25.1073 20.576C26.7286 21.152 28.1366 21.44 29.3313 21.44C32.9579 21.44 34.7713 19.68 34.7713 16.16C34.7713 13.1947 33.3846 11.712 30.6113 11.712C29.6299 11.712 28.7553 11.904 27.9873 12.288C26.8353 12.8427 25.9286 13.12 25.2673 13.12C24.8406 13.12 24.4779 12.9707 24.1793 12.672C23.9019 12.3733 23.7739 12.0213 23.7953 11.616L24.2753 2.464C24.3179 1.952 24.5206 1.52533 24.8833 1.184C25.2459 0.821332 25.6833 0.639999 26.1953 0.639999H35.8913C36.2966 0.639999 36.6379 0.778666 36.9153 1.056C37.1926 1.33333 37.3313 1.67466 37.3313 2.08C37.3313 2.48533 37.1926 2.82667 36.9153 3.104C36.6379 3.38133 36.2966 3.52 35.8913 3.52H27.8273C27.6566 3.52 27.5713 3.616 27.5713 3.808L27.2513 9.888C27.2513 9.90933 27.2619 9.92 27.2833 9.92C27.3046 9.92 27.3153 9.92 27.3153 9.92L27.3793 9.888C28.5526 9.26933 29.8433 8.96 31.2513 8.96C33.4699 8.96 35.1979 9.58933 36.4353 10.848C37.6726 12.1067 38.2913 13.8773 38.2913 16.16C38.2913 18.848 37.5339 20.8853 36.0193 22.272C34.5046 23.6373 32.2753 24.32 29.3313 24.32C27.8593 24.32 26.4513 24.128 25.1073 23.744Z" fill="black"/>
</svg>
