<svg width="36" height="25" viewBox="0 0 36 25" fill="none" xmlns="http://www.w3.org/2000/svg">
<path d="M4.144 13.216V20.992C4.144 21.1627 4.22933 21.2693 4.4 21.312C5.232 21.44 6.10667 21.504 7.024 21.504C9.02933 21.504 10.5013 21.1307 11.44 20.384C12.3787 19.6373 12.848 18.496 12.848 16.96C12.848 15.5733 12.2827 14.56 11.152 13.92C10.0213 13.2587 8.112 12.928 5.424 12.928H4.432C4.24 12.928 4.144 13.024 4.144 13.216ZM4.144 3.648V9.888C4.144 10.08 4.24 10.176 4.432 10.176H5.424C7.77067 10.176 9.456 9.87733 10.48 9.28C11.5253 8.68267 12.048 7.776 12.048 6.56C12.048 5.38667 11.632 4.52267 10.8 3.968C9.968 3.41333 8.60267 3.136 6.704 3.136C5.89333 3.136 5.12533 3.2 4.4 3.328C4.22933 3.37067 4.144 3.47733 4.144 3.648ZM2.448 24.096C1.91467 24.032 1.47733 23.808 1.136 23.424C0.794667 23.0187 0.624 22.5493 0.624 22.016V2.624C0.624 2.09067 0.794667 1.632 1.136 1.248C1.47733 0.842666 1.91467 0.607999 2.448 0.543999C3.728 0.394666 5.14667 0.32 6.704 0.32C12.464 0.32 15.344 2.24 15.344 6.08C15.344 7.36 14.9067 8.49067 14.032 9.472C13.1573 10.432 12.0053 11.0507 10.576 11.328C10.5547 11.328 10.544 11.3387 10.544 11.36C10.544 11.3813 10.5547 11.392 10.576 11.392C12.368 11.6693 13.7653 12.3307 14.768 13.376C15.792 14.4213 16.304 15.7227 16.304 17.28C16.304 21.9733 13.2107 24.32 7.024 24.32C5.33867 24.32 3.81333 24.2453 2.448 24.096ZM22.076 23.744C21.6067 23.616 21.2333 23.3493 20.956 22.944C20.6787 22.5387 20.54 22.08 20.54 21.568C20.54 21.184 20.7 20.896 21.02 20.704C21.3613 20.4907 21.7133 20.448 22.076 20.576C23.6973 21.152 25.1053 21.44 26.3 21.44C29.9267 21.44 31.74 19.68 31.74 16.16C31.74 13.1947 30.3533 11.712 27.58 11.712C26.5987 11.712 25.724 11.904 24.956 12.288C23.804 12.8427 22.8973 13.12 22.236 13.12C21.8093 13.12 21.4467 12.9707 21.148 12.672C20.8707 12.3733 20.7427 12.0213 20.764 11.616L21.244 2.464C21.2867 1.952 21.4893 1.52533 21.852 1.184C22.2147 0.821332 22.652 0.639999 23.164 0.639999H32.86C33.2653 0.639999 33.6067 0.778666 33.884 1.056C34.1613 1.33333 34.3 1.67466 34.3 2.08C34.3 2.48533 34.1613 2.82667 33.884 3.104C33.6067 3.38133 33.2653 3.52 32.86 3.52H24.796C24.6253 3.52 24.54 3.616 24.54 3.808L24.22 9.888C24.22 9.90933 24.2307 9.92 24.252 9.92C24.2733 9.92 24.284 9.92 24.284 9.92L24.348 9.888C25.5213 9.26933 26.812 8.96 28.22 8.96C30.4387 8.96 32.1667 9.58933 33.404 10.848C34.6413 12.1067 35.26 13.8773 35.26 16.16C35.26 18.848 34.5027 20.8853 32.988 22.272C31.4733 23.6373 29.244 24.32 26.3 24.32C24.828 24.32 23.42 24.128 22.076 23.744Z" fill="black"/>
</svg>
