<svg width="17" height="24" viewBox="0 0 17 24" fill="none" xmlns="http://www.w3.org/2000/svg">
<path d="M4.144 3.648V12.064C4.144 12.2347 4.24 12.3413 4.432 12.384C5.52 12.5333 6.49067 12.608 7.344 12.608C9.22133 12.608 10.6613 12.2027 11.664 11.392C12.6667 10.56 13.168 9.376 13.168 7.84C13.168 6.304 12.6773 5.14133 11.696 4.352C10.7147 3.54133 9.264 3.136 7.344 3.136C6.32 3.136 5.34933 3.2 4.432 3.328C4.24 3.37067 4.144 3.47733 4.144 3.648ZM3.632 23.488C3.29067 23.8293 2.87467 24 2.384 24C1.89333 24 1.47733 23.8293 1.136 23.488C0.794667 23.1467 0.624 22.7307 0.624 22.24V2.624C0.624 2.112 0.794667 1.65333 1.136 1.248C1.47733 0.842666 1.904 0.618666 2.416 0.575998C4.22933 0.405333 5.97867 0.32 7.664 0.32C10.608 0.32 12.8373 0.949333 14.352 2.208C15.8667 3.44533 16.624 5.216 16.624 7.52C16.624 12.7467 13.6373 15.36 7.664 15.36C6.40533 15.36 5.31733 15.3173 4.4 15.232C4.22933 15.232 4.144 15.3173 4.144 15.488V22.24C4.144 22.7307 3.97333 23.1467 3.632 23.488Z" fill="black"/>
</svg>
