<svg width="40" height="37" viewBox="0 0 40 37" fill="none" xmlns="http://www.w3.org/2000/svg">
<path d="M40 18.4986C40.0004 23.3627 38.0895 28.0313 34.6807 31.4939C31.272 34.9565 26.6397 36.9346 21.7865 36.9999H21.5385C16.8235 37.0117 12.2852 35.2035 8.86538 31.9506C8.71853 31.8114 8.60047 31.6446 8.51795 31.4597C8.43543 31.2748 8.39007 31.0754 8.38444 30.8729C8.37881 30.6704 8.41304 30.4688 8.48517 30.2795C8.5573 30.0903 8.66591 29.9171 8.80481 29.77C8.94371 29.6228 9.11017 29.5045 9.29469 29.4218C9.47922 29.3391 9.67819 29.2936 9.88024 29.288C10.0823 29.2823 10.2835 29.3167 10.4723 29.3889C10.6611 29.4612 10.8339 29.5701 10.9808 29.7093C13.1804 31.7881 15.9425 33.1714 18.922 33.6863C21.9015 34.2011 24.9663 33.8247 27.7336 32.6041C30.5009 31.3835 32.848 29.3728 34.4817 26.8232C36.1153 24.2736 36.9631 21.2981 36.9191 18.2684C36.8751 15.2387 35.9413 12.2892 34.2343 9.78825C32.5274 7.28734 30.1229 5.34591 27.3214 4.20651C24.5198 3.06711 21.4453 2.78024 18.482 3.38175C15.5187 3.98326 12.7979 5.44647 10.6596 7.58859C10.6439 7.60562 10.6272 7.62171 10.6096 7.63678L5.49808 12.3315H10.7692C11.1773 12.3315 11.5686 12.4939 11.8571 12.7831C12.1456 13.0722 12.3077 13.4644 12.3077 13.8733C12.3077 14.2822 12.1456 14.6743 11.8571 14.9635C11.5686 15.2526 11.1773 15.415 10.7692 15.415H1.53846C1.13044 15.415 0.739122 15.2526 0.450605 14.9635C0.162087 14.6743 0 14.2822 0 13.8733V4.6226C0 4.21369 0.162087 3.82154 0.450605 3.5324C0.739122 3.24326 1.13044 3.08082 1.53846 3.08082C1.94649 3.08082 2.3378 3.24326 2.62632 3.5324C2.91484 3.82154 3.07692 4.21369 3.07692 4.6226V10.3657L8.50962 5.39349C11.0942 2.8134 14.3836 1.05852 17.9626 0.35039C21.5415 -0.357743 25.2496 0.0126156 28.6187 1.41471C31.9878 2.81681 34.8669 5.18778 36.8925 8.22833C38.9181 11.2689 39.9995 14.8427 40 18.4986Z" fill="black"/>
</svg>
