<svg width="40" height="40" viewBox="0 0 40 40" fill="none" xmlns="http://www.w3.org/2000/svg">
<path d="M12 2H4C3.46957 2 2.96086 2.21071 2.58579 2.58579C2.21071 2.96086 2 3.46957 2 4V12M12 38H4C3.46957 38 2.96086 37.7893 2.58579 37.4142C2.21071 37.0391 2 36.5304 2 36V28M28 38H36C36.5304 38 37.0391 37.7893 37.4142 37.4142C37.7893 37.0391 38 36.5304 38 36V28M28 2H36C36.5304 2 37.0391 2.21071 37.4142 2.58579C37.7893 2.96086 38 3.46957 38 4V12M20 12V28M28 12V28M12 12V28" stroke="black" stroke-width="4" stroke-linecap="round" stroke-linejoin="round"/>
</svg>
